<?xml version="1.0" encoding="UTF-8"?>
<svg id="Layer_2" data-name="Layer 2" xmlns="http://www.w3.org/2000/svg" width="135.53" height="135.53" viewBox="0 0 135.53 135.53">
  <g id="Layer_1-2" data-name="Layer 1">
    <g>
      <path d="M47.06,47.06l-27.21-27.21C7.58,32.11,0,49.05,0,67.76h38.48c0-8.09,3.28-15.41,8.58-20.71Z" style="fill: #fff;"/>
      <path d="M67.76,38.48c16.17,0,29.29,13.11,29.29,29.29h38.48C135.53,30.34,105.19,0,67.76,0c-18.71,0-35.65,7.58-47.92,19.85l27.21,27.21c5.3-5.3,12.62-8.58,20.71-8.58Z" style="fill: #a5d6a9;"/>
      <path d="M97.05,67.76c0,8.09-3.28,15.41-8.58,20.71l27.21,27.21c12.26-12.26,19.85-29.2,19.85-47.92h-38.48Z" style="fill: #fff;"/>
      <path d="M67.76,97.05c-16.17,0-29.29-13.11-29.29-29.29H0c0,37.43,30.34,67.76,67.76,67.76,18.71,0,35.65-7.58,47.92-19.85l-27.21-27.21c-5.3,5.3-12.62,8.58-20.71,8.58Z" style="fill: #a5d6a9;"/>
      <path d="M67.76,38.48c-8.09,0-15.41,3.28-20.71,8.58s-8.58,12.62-8.58,20.71c0,16.17,13.11,29.29,29.29,29.29,8.09,0,15.41-3.28,20.71-8.58s8.58-12.62,8.58-20.71c0-16.17-13.11-29.29-29.29-29.29Z" style="fill: #71be6c;"/>
    </g>
    <circle cx="67.76" cy="67.71" r="11.22" style="fill: #49b154;"/>
  </g>
</svg>